<svg width="34" height="34" viewBox="0 0 34 34" fill="none" xmlns="http://www.w3.org/2000/svg">
<path d="M21.0305 6.14991C20.2371 6.00335 19.5085 6.50967 19.3574 7.28414C19.2064 8.0586 19.7143 8.81475 20.4861 8.96631C22.8099 9.41934 24.6041 11.2181 25.0589 13.5498C25.1884 14.221 25.7793 14.7107 26.4598 14.7107C26.5511 14.7107 26.6424 14.7024 26.7354 14.6857C27.5072 14.5308 28.0151 13.7763 27.8641 13.0002C27.1852 9.5176 24.5046 6.82778 21.0305 6.14991Z" fill="#1179FC"/>
<path d="M20.9268 0.34656C20.555 0.293263 20.1815 0.403188 19.8844 0.639692C19.579 0.879527 19.3881 1.22596 19.3466 1.61402C19.2587 2.39848 19.8247 3.108 20.6081 3.19627C26.0109 3.79919 30.2103 8.00796 30.8178 13.4276C30.8991 14.1537 31.5082 14.7017 32.2353 14.7017C32.29 14.7017 32.3431 14.6984 32.3979 14.6917C32.778 14.6501 33.1166 14.4619 33.3556 14.1621C33.593 13.8623 33.7009 13.4892 33.6577 13.1078C32.9009 6.34577 27.6674 1.09771 20.9268 0.34656Z" fill="#1179FC"/>
<path fill-rule="evenodd" clip-rule="evenodd" d="M15.3862 18.6206C22.0347 25.2673 23.543 17.5779 27.7761 21.808C31.8571 25.8879 34.2027 26.7053 29.0321 31.8745C28.3844 32.395 24.2694 38.6571 9.80768 24.1994C-4.65579 9.74 1.60265 5.62074 2.12329 4.97325C7.30645 -0.210257 8.10978 2.14897 12.1908 6.22888C16.424 10.4608 8.73777 11.974 15.3862 18.6206Z" fill="#1179FC"/>
</svg>
